# xmcd
#
# Track frame offsets: 
#        150
#        36310
#        56483
#        82330
#        99480
#        124087
#
# Disc length: 2301 seconds
#
# Revision: 0
# Processed by: cddbd v1.5.2PL0 Copyright (c) Steve Scherf et al.
# Submitted via: ExactAudioCopy v1.3
#
DISCID=4e08fb06
DTITLE=Blues Pilz - Eyes Dont Lie
DYEAR=1979
DGENRE=Blues Rock
TTITLE0=Eyes don`t Lie
TTITLE1=Crying Blues
TTITLE2=Stoned
TTITLE3=Mexico City Blues
TTITLE4=Woman
TTITLE5=Death Rumor
EXTD=
EXTT0=
EXTT1=
EXTT2=
EXTT3=
EXTT4=
EXTT5=
PLAYORDER=
